HIERARCHY
ROOT hip
{
  OFFSET 73.4737 83.3735 -29.6108
  CHANNELS 6 Xposition Yposition Zposition Zrotation Xrotation Yrotation
  JOINT abdomen
  {
    OFFSET 0 20.6881 -0.73152
    CHANNELS 3 Zrotation Xrotation Yrotation
    JOINT chest
    {
      OFFSET 0 11.7043 -0.48768
      CHANNELS 3 Zrotation Xrotation Yrotation
      JOINT neck
      {
        OFFSET 0 22.1894 -2.19456
        CHANNELS 3 Zrotation Xrotation Yrotation
        JOINT head
        {
          OFFSET -0.24384 7.07133 1.2192
          CHANNELS 3 Zrotation Xrotation Yrotation
          JOINT leftEye
          {
            OFFSET 4.14528 8.04674 8.04672
            CHANNELS 3 Zrotation Xrotation Yrotation
            End Site
            {
              OFFSET 1 0 0
            }
          }
          JOINT rightEye
          {
            OFFSET -3.6576 8.04674 8.04672
            CHANNELS 3 Zrotation Xrotation Yrotation
            End Site
            {
              OFFSET 1 0 0
            }
          }
        }
      }
      JOINT rCollar
      {
        OFFSET -2.68224 19.2634 -4.8768
        CHANNELS 3 Zrotation Xrotation Yrotation
        JOINT rShldr
        {
          OFFSET -8.77824 -1.95073 1.46304
          CHANNELS 3 Zrotation Xrotation Yrotation
          JOINT rForeArm
          {
            OFFSET -28.1742 -1.7115 0.48768
            CHANNELS 3 Zrotation Xrotation Yrotation
            JOINT rHand
            {
              OFFSET -22.5879 0.773209 7.07136
              CHANNELS 3 Zrotation Xrotation Yrotation
              JOINT rThumb1
              {
                OFFSET -1.2192 -0.487915 3.41376
                CHANNELS 3 Zrotation Xrotation Yrotation
                JOINT rThumb2
                {
                  OFFSET -3.37035 -0.52449 3.41376
                  CHANNELS 3 Zrotation Xrotation Yrotation
                  End Site
                  {
                    OFFSET -1.78271 -1.18214 1.43049
                  }
                }
              }
              JOINT rIndex1
              {
                OFFSET -7.75947 0.938293 5.60832
                CHANNELS 3 Zrotation Xrotation Yrotation
                JOINT rIndex2
                {
                  OFFSET -2.54057 -0.884171 1.56538
                  CHANNELS 3 Zrotation Xrotation Yrotation
                  End Site
                  {
                    OFFSET -1.62519 -0.234802 1.16502
                  }
                }
              }
              JOINT rMid1
              {
                OFFSET -8.24714 1.18213 3.41376
                CHANNELS 3 Zrotation Xrotation Yrotation
                JOINT rMid2
                {
                  OFFSET -3.10165 -0.590103 1.0647
                  CHANNELS 3 Zrotation Xrotation Yrotation
                  End Site
                  {
                    OFFSET -2.48547 -0.328903 0.83742
                  }
                }
              }
              JOINT rRing1
              {
                OFFSET -8.82822 0.546677 1.51678
                CHANNELS 3 Zrotation Xrotation Yrotation
                JOINT rRing2
                {
                  OFFSET -2.60934 -0.819778 -0.0198488
                  CHANNELS 3 Zrotation Xrotation Yrotation
                  End Site
                  {
                    OFFSET -2.33842 -0.294052 0.168128
                  }
                }
              }
              JOINT rPinky1
              {
                OFFSET -8.27202 -0.0477905 -0.4584
                CHANNELS 3 Zrotation Xrotation Yrotation
                JOINT rPinky2
                {
                  OFFSET -1.82734 -0.647385 -0.700984
                  CHANNELS 3 Zrotation Xrotation Yrotation
                  End Site
                  {
                    OFFSET -1.69225 -0.51767 -0.607171
                  }
                }
              }
            }
          }
        }
      }
      JOINT lCollar
      {
        OFFSET 2.68224 19.2634 -4.8768
        CHANNELS 3 Zrotation Xrotation Yrotation
        JOINT lShldr
        {
          OFFSET 8.77824 -1.95073 1.46304
          CHANNELS 3 Zrotation Xrotation Yrotation
          JOINT lForeArm
          {
            OFFSET 28.1742 -1.7115 0.48768
            CHANNELS 3 Zrotation Xrotation Yrotation
            JOINT lHand
            {
              OFFSET 22.5879 0.773209 7.07136
              CHANNELS 3 Zrotation Xrotation Yrotation
              JOINT lThumb1
              {
                OFFSET 1.2192 -0.487915 3.41376
                CHANNELS 3 Zrotation Xrotation Yrotation
                JOINT lThumb2
                {
                  OFFSET 3.37035 -0.52449 3.41376
                  CHANNELS 3 Zrotation Xrotation Yrotation
                  End Site
                  {
                    OFFSET 1.78271 -1.18214 1.43049
                  }
                }
              }
              JOINT lIndex1
              {
                OFFSET 7.75947 0.938293 5.60832
                CHANNELS 3 Zrotation Xrotation Yrotation
                JOINT lIndex2
                {
                  OFFSET 2.54057 -0.884171 1.56538
                  CHANNELS 3 Zrotation Xrotation Yrotation
                  End Site
                  {
                    OFFSET 1.62519 -0.234802 1.16502
                  }
                }
              }
              JOINT lMid1
              {
                OFFSET 8.24714 1.18213 3.41376
                CHANNELS 3 Zrotation Xrotation Yrotation
                JOINT lMid2
                {
                  OFFSET 3.10165 -0.590103 1.0647
                  CHANNELS 3 Zrotation Xrotation Yrotation
                  End Site
                  {
                    OFFSET 2.48547 -0.328903 0.83742
                  }
                }
              }
              JOINT lRing1
              {
                OFFSET 8.82822 0.546677 1.51678
                CHANNELS 3 Zrotation Xrotation Yrotation
                JOINT lRing2
                {
                  OFFSET 2.60934 -0.819778 -0.0198488
                  CHANNELS 3 Zrotation Xrotation Yrotation
                  End Site
                  {
                    OFFSET 2.33842 -0.294052 0.168128
                  }
                }
              }
              JOINT lPinky1
              {
                OFFSET 8.27202 -0.0477905 -0.4584
                CHANNELS 3 Zrotation Xrotation Yrotation
                JOINT lPinky2
                {
                  OFFSET 1.82734 -0.647385 -0.700984
                  CHANNELS 3 Zrotation Xrotation Yrotation
                  End Site
                  {
                    OFFSET 1.69225 -0.51767 -0.607171
                  }
                }
              }
            }
          }
        }
      }
    }
  }
  JOINT rButtock
  {
    OFFSET -8.77824 4.35084 1.2192
    CHANNELS 3 Zrotation Xrotation Yrotation
    JOINT rThigh
    {
      OFFSET 0 -1.70687 -2.19456
      CHANNELS 3 Zrotation Xrotation Yrotation
      JOINT rShin
      {
        OFFSET 0 -36.8199 0.73152
        CHANNELS 3 Zrotation Xrotation Yrotation
        JOINT rFoot
        {
          OFFSET 0.73152 -45.1104 -5.12064
          CHANNELS 3 Zrotation Xrotation Yrotation
          End Site
          {
            OFFSET -1.1221 -3.69964 12.103
          }
        }
      }
    }
  }
  JOINT lButtock
  {
    OFFSET 8.77824 4.35084 1.2192
    CHANNELS 3 Zrotation Xrotation Yrotation
    JOINT lThigh
    {
      OFFSET 0 -1.70687 -2.19456
      CHANNELS 3 Zrotation Xrotation Yrotation
      JOINT lShin
      {
        OFFSET 0 -36.8199 0.73152
        CHANNELS 3 Zrotation Xrotation Yrotation
        JOINT lFoot
        {
          OFFSET -0.73152 -45.1104 -5.12064
          CHANNELS 3 Zrotation Xrotation Yrotation
          End Site
          {
            OFFSET 1.1221 -3.69964 12.103
          }
        }
      }
    }
  }
}
MOTION
Frames:	4
Frame Time:	0.00833333
-73.8665 82.9451 106.717 0.564646 -7.57358 -175.692 -2.94305 -6.5396 -7.02107 1.35364 7.19298 -2.10501 -4.6372 17.8333 -3.55376 16.9076 -39.4958 -0.788831 -0 0 0 -0 0 0 -2.46429e-014 -9.3826e-014 -3.46482e-013 82.623 4.31765 -5.98344 -13.2918 -6.39688 24.1397 -1.24601 29.9818 4.65075 1.3102e-009 -1.83329e-009 2.14082e-009 2.30729e-009 -3.17153e-009 3.6642e-009 1.31021e-009 -1.83329e-009 2.14082e-009 7.73091 5.47488 0.417314 1.3102e-009 -1.83329e-009 2.14083e-009 2.90554 0.965183 0.102902 1.31022e-009 -1.83329e-009 2.14083e-009 10.2786 0.731801 0.0259123 1.3102e-009 -1.83328e-009 2.14083e-009 2.22167 -0.733487 -0.20892 -2.46573e-014 -9.38264e-014 -3.4683e-013 -80.2299 10.9392 -6.28583 9.0454 -3.58109 -16.0232 1.37195 31.2793 -4.89791 3.49519e-009 1.51279e-009 -5.67697e-011 6.0248e-009 2.55167e-009 -1.87047e-010 3.49518e-009 1.51278e-009 -5.67665e-011 -7.73091 5.47488 -0.417314 3.49519e-009 1.51278e-009 -5.67761e-011 -2.90554 0.965183 -0.102902 3.49518e-009 1.51278e-009 -5.67769e-011 -10.2786 0.731801 -0.0259123 3.4952e-009 1.51279e-009 -5.67888e-011 -2.22167 -0.733487 0.20892 -2.03217e-016 0 -3.88251e-019 5.57767 -22.6783 -4.66791 -0.164292 24.0545 0.353112 3.18644 -9.13167 14.2944 2.03217e-016 0 3.88251e-019 3.6028 -33.2305 0.252281 2.02786 70.2151 -2.60749 0.742137 12.8133 0.952614 
-73.5432 82.9904 105.807 0.585711 -7.4814 -174.637 -2.91387 -6.43235 -6.70389 1.2903 7.27289 -2.01363 -4.52743 17.6667 -3.60799 16.6771 -38.9075 -1.07499 -0 0 0 -0 0 0 -2.76466e-014 -7.30038e-014 -2.25807e-013 82.6534 4.76053 -5.64593 -13.395 -6.47638 24.3446 -1.21468 29.6479 4.58809 6.39803e-010 -1.18018e-009 1.80153e-009 1.14338e-009 -2.04528e-009 3.09466e-009 6.39804e-010 -1.18018e-009 1.80153e-009 7.73091 5.47488 0.417314 6.398e-010 -1.18018e-009 1.80154e-009 2.90554 0.965183 0.102902 6.39814e-010 -1.18018e-009 1.80154e-009 10.2786 0.731801 0.0259123 6.398e-010 -1.18017e-009 1.80155e-009 2.22167 -0.733487 -0.20892 -2.76888e-014 -7.30033e-014 -2.26151e-013 -80.0335 11.1196 -6.29306 9.08949 -3.60617 -16.1047 1.35115 31.0674 -4.85725 2.52884e-009 1.01187e-009 -2.89169e-010 4.35357e-009 1.70095e-009 -5.63762e-010 2.52884e-009 1.01187e-009 -2.89163e-010 -7.73091 5.47488 -0.417314 2.52884e-009 1.01187e-009 -2.89175e-010 -2.90554 0.965183 -0.102902 2.52883e-009 1.01187e-009 -2.89174e-010 -10.2786 0.731801 -0.0259123 2.52885e-009 1.01187e-009 -2.89188e-010 -2.22167 -0.733487 0.20892 -2.03217e-016 0 -3.88251e-019 5.97356 -21.8098 -4.23179 -0.16606 23.8782 0.32913 3.44757 -9.46358 14.9408 2.03217e-016 0 3.88251e-019 3.24232 -35.2965 -0.692862 2.14256 70.9041 -2.68835 0.723889 11.5534 1.13661 
-73.2794 82.9557 104.88 0.613878 -7.4405 -173.523 -2.87368 -6.37322 -6.36139 1.17825 7.3674 -1.91252 -4.36431 17.3974 -3.67883 16.3198 -38.2115 -1.4464 -0 0 0 -0 0 0 -3.64309e-014 -6.3016e-014 -2.03164e-014 82.7146 5.29577 -5.3199 -13.4966 -6.55525 24.5468 -1.17928 29.2613 4.51618 -5.1351e-010 -9.03611e-011 1.28263e-009 -8.57331e-010 -1.6633e-010 2.22647e-009 -5.13511e-010 -9.03609e-011 1.28263e-009 7.73091 5.47488 0.417314 -5.13514e-010 -9.03593e-011 1.28264e-009 2.90554 0.965183 0.102902 -5.13501e-010 -9.0359e-011 1.28264e-009 10.2786 0.731801 0.0259123 -5.13513e-010 -9.03565e-011 1.28265e-009 2.22167 -0.733487 -0.20892 -3.65006e-014 -6.30135e-014 -2.06332e-014 -79.7478 11.5327 -6.31939 9.15912 -3.64577 -16.2338 1.33488 30.8985 -4.82505 1.00698e-009 2.43898e-010 -6.44413e-010 1.72209e-009 3.97127e-010 -1.1384e-009 1.00699e-009 2.43904e-010 -6.44398e-010 -7.73091 5.47488 -0.417314 1.00699e-009 2.43898e-010 -6.44416e-010 -2.90554 0.965183 -0.102902 1.00698e-009 2.43898e-010 -6.44414e-010 -10.2786 0.731801 -0.0259123 1.00699e-009 2.439e-010 -6.44429e-010 -2.22167 -0.733487 0.20892 -2.03217e-016 0 -3.88251e-019 6.36343 -21.07 -3.72617 -0.168542 23.8207 0.309371 3.71131 -9.79807 15.5541 2.03217e-016 0 3.88251e-019 2.71983 -37.279 -1.8934 2.17466 71.023 -2.69268 0.729292 10.3155 1.10507 
-72.8575 82.863 103.923 0.671721 -7.4213 -172.361 -2.8392 -6.33352 -6.00556 1.03729 7.45804 -1.8058 -4.22323 17.1177 -3.74062 15.997 -37.5176 -1.78308 -0 0 0 -0 0 0 -4.54726e-014 -5.13384e-014 1.8666e-013 82.7767 5.90046 -5.02213 -13.5984 -6.63479 24.7495 -1.14351 28.8608 4.44235 -1.6416e-009 1.00056e-009 7.51333e-010 -2.81466e-009 1.71468e-009 1.33626e-009 -1.64161e-009 1.00056e-009 7.51328e-010 7.73091 5.47488 0.417314 -1.64161e-009 1.00056e-009 7.51335e-010 2.90554 0.965183 0.102902 -1.6416e-009 1.00056e-009 7.51336e-010 10.2786 0.731801 0.0259123 -1.64161e-009 1.00057e-009 7.51342e-010 2.22167 -0.733487 -0.20892 -4.55645e-014 -5.13342e-014 1.8638e-013 -79.4439 12.0094 -6.3281 9.24486 -3.69481 -16.3929 1.31389 30.6842 -4.78408 -5.31333e-010 -5.13516e-010 -9.61419e-010 -9.36966e-010 -8.87963e-010 -1.64675e-009 -5.31323e-010 -5.13504e-010 -9.61394e-010 -7.73091 5.47488 -0.417314 -5.31331e-010 -5.13513e-010 -9.61419e-010 -2.90554 0.965183 -0.102902 -5.31343e-010 -5.13513e-010 -9.61415e-010 -10.2786 0.731801 -0.0259123 -5.31326e-010 -5.13512e-010 -9.61432e-010 -2.22167 -0.733487 0.20892 -2.03217e-016 0 -3.88251e-019 6.71255 -20.4042 -3.17371 -0.172093 23.8425 0.289634 3.98594 -10.1316 16.1618 2.03217e-016 0 3.88251e-019 2.08294 -39.103 -3.24344 2.12305 70.6264 -2.61425 0.730929 9.10076 1.03291 
